# xmcd
#
# Track frame offsets: 
#        150
#        24195
#        46189
#        70498
#        95005
#        114606
#        142112
#        165685
#        190758
#        208271
#        229617
#
# Disc length: 3236 seconds
#
# Revision: 0
# Processed by: cddbd v1.5.2PL0 Copyright (c) Steve Scherf et al.
# Submitted via: ExactAudioCopy v0.95b4
#
DISCID=9a0ca20b
DTITLE=Cass McCombs - Catacombs
DYEAR=2009
DGENRE=Folk
TTITLE0=Dreams Come True Girl
TTITLE1=Prima Donna
TTITLE2=You Saved My Life
TTITLE3=Don't Vote
TTITLE4=Executioner's Song
TTITLE5=Harmonia
TTITLE6=My Sister, My Spouse
TTITLE7=Lionkiller Got Married
TTITLE8=Eaves Dropping On The Competition
TTITLE9=Jonsey Boy
TTITLE10=One Way To Go
EXTD=
EXTT0=
EXTT1=
EXTT2=
EXTT3=
EXTT4=
EXTT5=
EXTT6=
EXTT7=
EXTT8=
EXTT9=
EXTT10=
PLAYORDER=
